<svg xmlns="http://www.w3.org/2000/svg" version="1.1" xmlns:xlink="http://www.w3.org/1999/xlink" xmlns:svgjs="http://svgjs.dev/svgjs" width="2000" height="222" viewBox="0 0 2000 222"><g transform="matrix(1,0,0,1,-1.2121212121212466,0.9084579283850758)"><svg viewBox="0 0 396 44" data-background-color="#000000" preserveAspectRatio="xMidYMid meet" height="222" width="2000" xmlns="http://www.w3.org/2000/svg" xmlns:xlink="http://www.w3.org/1999/xlink"><g id="tight-bounds" transform="matrix(1,0,0,1,0.2400000000000091,-0.18005472454478877)"><svg viewBox="0 0 395.52 44.360109449089585" height="44.360109449089585" width="395.52"><g><svg viewBox="0 0 455.30899659192823 51.065829596412556" height="44.360109449089585" width="395.52"><g transform="matrix(1,0,0,1,0,7.057578475336324)"><svg viewBox="0 0 395.52 36.95067264573991" height="36.95067264573991" width="395.52"><g id="textblocktransform"><svg viewBox="0 0 395.52 36.95067264573991" height="36.95067264573991" width="395.52" id="textblock"><g><svg viewBox="0 0 395.52 36.95067264573991" height="36.95067264573991" width="395.52"><g transform="matrix(1,0,0,1,0,0)"><svg width="395.52" viewBox="2.25 -37 401.36 37.5" height="36.95067264573991" data-palette-color="#f4f3f0"><path d="M15-26.15L15-26.15Q17.4-26.15 19.4-25.63 21.4-25.1 22.63-24.2 23.85-23.3 23.85-22.25L23.85-22.25Q23.85-21.75 23.48-21.28 23.1-20.8 22.55-20.8L22.55-20.8Q21.9-20.8 21.53-21.1 21.15-21.4 20.8-21.8 20.45-22.2 19.75-22.55L19.75-22.55Q19.1-22.85 17.88-23.1 16.65-23.35 15.15-23.35L15.15-23.35Q12.35-23.35 10.1-21.95 7.85-20.55 6.55-18.18 5.25-15.8 5.25-12.85L5.25-12.85Q5.25-9.85 6.48-7.45 7.7-5.05 9.93-3.68 12.15-2.3 15.05-2.3L15.05-2.3Q17.05-2.3 18.18-2.65 19.3-3 20.05-3.45L20.05-3.45Q21.05-4 21.48-4.53 21.9-5.05 22.6-5.05L22.6-5.05Q23.2-5.05 23.55-4.67 23.9-4.3 23.9-3.7L23.9-3.7Q23.9-2.9 22.73-1.93 21.55-0.95 19.5-0.23 17.45 0.5 14.75 0.5L14.75 0.5Q11.05 0.5 8.22-1.25 5.4-3 3.83-6.03 2.25-9.05 2.25-12.85L2.25-12.85Q2.25-16.5 3.85-19.5 5.45-22.5 8.3-24.33 11.15-26.15 15-26.15ZM53.25-12.8L53.25-12.8Q53.25-9 51.57-5.98 49.9-2.95 47.05-1.23 44.2 0.5 40.6 0.5L40.6 0.5Q37.05 0.5 34.17-1.23 31.3-2.95 29.62-5.98 27.95-9 27.95-12.8L27.95-12.8Q27.95-16.65 29.62-19.65 31.3-22.65 34.17-24.4 37.05-26.15 40.6-26.15L40.6-26.15Q44.2-26.15 47.05-24.4 49.9-22.65 51.57-19.65 53.25-16.65 53.25-12.8ZM50.25-12.8L50.25-12.8Q50.25-15.85 49-18.23 47.75-20.6 45.57-21.98 43.4-23.35 40.6-23.35L40.6-23.35Q37.85-23.35 35.67-21.98 33.5-20.6 32.22-18.23 30.95-15.85 30.95-12.8L30.95-12.8Q30.95-9.75 32.22-7.4 33.5-5.05 35.67-3.68 37.85-2.3 40.6-2.3L40.6-2.3Q43.4-2.3 45.57-3.68 47.75-5.05 49-7.4 50.25-9.75 50.25-12.8ZM80.15-37L80.15-37Q80.8-37 81.22-36.58 81.65-36.15 81.65-35.5L81.65-35.5 81.65-1.5Q81.65-0.9 81.2-0.45 80.75 0 80.15 0L80.15 0Q79.45 0 79.05-0.45 78.65-0.9 78.65-1.5L78.65-1.5 78.65-7.45 79.5-8.15Q79.5-6.75 78.75-5.23 78-3.7 76.62-2.4 75.25-1.1 73.42-0.3 71.6 0.5 69.45 0.5L69.45 0.5Q66.15 0.5 63.47-1.25 60.8-3 59.25-6 57.7-9 57.7-12.85L57.7-12.85Q57.7-16.65 59.25-19.68 60.8-22.7 63.45-24.43 66.1-26.15 69.4-26.15L69.4-26.15Q71.5-26.15 73.35-25.4 75.2-24.65 76.62-23.35 78.05-22.05 78.87-20.38 79.7-18.7 79.7-16.9L79.7-16.9 78.65-17.65 78.65-35.5Q78.65-36.1 79.05-36.55 79.45-37 80.15-37ZM69.75-2.3L69.75-2.3Q72.4-2.3 74.45-3.68 76.5-5.05 77.67-7.43 78.85-9.8 78.85-12.85L78.85-12.85Q78.85-15.85 77.67-18.23 76.5-20.6 74.45-21.98 72.4-23.35 69.75-23.35L69.75-23.35Q67.15-23.35 65.07-21.98 63-20.6 61.82-18.23 60.65-15.85 60.65-12.85L60.65-12.85Q60.65-9.85 61.82-7.45 63-5.05 65.07-3.68 67.15-2.3 69.75-2.3ZM100.84 0.5L100.84 0.5Q96.99 0.5 94.04-1.15 91.09-2.8 89.44-5.75 87.79-8.7 87.79-12.65L87.79-12.65Q87.79-16.9 89.47-19.9 91.14-22.9 93.82-24.53 96.49-26.15 99.49-26.15L99.49-26.15Q101.69-26.15 103.77-25.38 105.84-24.6 107.44-23.08 109.04-21.55 110.04-19.35 111.04-17.15 111.09-14.25L111.09-14.25Q111.09-13.65 110.64-13.23 110.19-12.8 109.59-12.8L109.59-12.8 89.54-12.8 88.94-15.5 108.64-15.5 107.99-14.9 107.99-15.9Q107.74-18.25 106.44-19.9 105.14-21.55 103.32-22.4 101.49-23.25 99.49-23.25L99.49-23.25Q97.99-23.25 96.42-22.65 94.84-22.05 93.57-20.78 92.29-19.5 91.49-17.53 90.69-15.55 90.69-12.85L90.69-12.85Q90.69-9.9 91.89-7.5 93.09-5.1 95.34-3.7 97.59-2.3 100.79-2.3L100.79-2.3Q102.49-2.3 103.89-2.8 105.29-3.3 106.37-4.13 107.44-4.95 108.14-5.85L108.14-5.85Q108.69-6.3 109.19-6.3L109.19-6.3Q109.74-6.3 110.12-5.9 110.49-5.5 110.49-5L110.49-5Q110.49-4.4 109.99-3.95L109.99-3.95Q108.49-2.15 106.09-0.83 103.69 0.5 100.84 0.5ZM147.64-26.1L147.64-26.1Q148.19-26.1 148.67-25.7 149.14-25.3 149.14-24.6L149.14-24.6Q149.14-24.45 149.09-24.25 149.04-24.05 148.99-23.95L148.99-23.95 141.29-0.95Q141.09-0.5 140.67-0.23 140.24 0.05 139.79 0L139.79 0Q138.89-0.05 138.44-0.95L138.44-0.95 131.39-17.55 132.29-17.35 126.04-0.95Q125.64-0.05 124.69 0L124.69 0Q124.24 0.05 123.79-0.23 123.34-0.5 123.19-0.95L123.19-0.95 115.29-23.95Q115.14-24.3 115.14-24.6L115.14-24.6Q115.14-25.25 115.57-25.68 115.99-26.1 116.69-26.1L116.69-26.1Q117.14-26.1 117.52-25.85 117.89-25.6 118.04-25.1L118.04-25.1 125.14-3.8 124.19-3.85 130.64-20.1Q131.04-21.05 132.04-21.05L132.04-21.05Q132.54-21.05 132.89-20.8 133.24-20.55 133.44-20.1L133.44-20.1 140.29-3.8 139.19-3.75 146.24-25.1Q146.54-26.1 147.64-26.1ZM175.84-25.55L175.84-25.55Q176.49-25.55 176.91-25.1 177.34-24.65 177.34-24L177.34-24 177.34-1.5Q177.34-0.9 176.89-0.45 176.44 0 175.84 0L175.84 0Q175.14 0 174.74-0.45 174.34-0.9 174.34-1.5L174.34-1.5 174.34-7.45 175.19-7.85Q175.19-6.45 174.41-5 173.64-3.55 172.29-2.3 170.94-1.05 169.11-0.28 167.29 0.5 165.14 0.5L165.14 0.5Q161.79 0.5 159.11-1.25 156.44-3 154.91-6.05 153.39-9.1 153.39-12.9L153.39-12.9Q153.39-16.8 154.94-19.78 156.49-22.75 159.14-24.45 161.79-26.15 165.09-26.15L165.09-26.15Q167.24-26.15 169.11-25.4 170.99-24.65 172.39-23.35 173.79-22.05 174.59-20.38 175.39-18.7 175.39-16.9L175.39-16.9 174.34-17.65 174.34-24Q174.34-24.65 174.74-25.1 175.14-25.55 175.84-25.55ZM165.44-2.3L165.44-2.3Q168.09-2.3 170.14-3.68 172.19-5.05 173.36-7.48 174.54-9.9 174.54-12.9L174.54-12.9Q174.54-15.85 173.36-18.2 172.19-20.55 170.14-21.95 168.09-23.35 165.44-23.35L165.44-23.35Q162.84-23.35 160.76-22 158.69-20.65 157.51-18.3 156.34-15.95 156.34-12.9L156.34-12.9Q156.34-9.9 157.49-7.48 158.64-5.05 160.71-3.68 162.79-2.3 165.44-2.3ZM183.99-26.1L183.99-26.1Q184.39-26.1 184.79-25.85 185.19-25.6 185.39-25.1L185.39-25.1 194.14-4.3 193.49-3.9 202.44-25.1Q202.84-26.1 203.89-26.05L203.89-26.05Q204.39-26.05 204.84-25.73 205.29-25.4 205.29-24.8L205.29-24.8Q205.29-24.5 205.21-24.33 205.14-24.15 205.09-23.95L205.09-23.95 195.29-0.95Q194.89-0.05 193.94 0L193.94 0Q193.49 0.05 193.06-0.23 192.64-0.5 192.44-0.95L192.44-0.95 182.59-23.95Q182.54-24.05 182.49-24.25 182.44-24.45 182.44-24.65L182.44-24.65Q182.44-25.2 182.84-25.65 183.24-26.1 183.99-26.1ZM222.13 0.5L222.13 0.5Q218.28 0.5 215.33-1.15 212.38-2.8 210.73-5.75 209.08-8.7 209.08-12.65L209.08-12.65Q209.08-16.9 210.76-19.9 212.43-22.9 215.11-24.53 217.78-26.15 220.78-26.15L220.78-26.15Q222.98-26.15 225.06-25.38 227.13-24.6 228.73-23.08 230.33-21.55 231.33-19.35 232.33-17.15 232.38-14.25L232.38-14.25Q232.38-13.65 231.93-13.23 231.48-12.8 230.88-12.8L230.88-12.8 210.83-12.8 210.23-15.5 229.93-15.5 229.28-14.9 229.28-15.9Q229.03-18.25 227.73-19.9 226.43-21.55 224.61-22.4 222.78-23.25 220.78-23.25L220.78-23.25Q219.28-23.25 217.71-22.65 216.13-22.05 214.86-20.78 213.58-19.5 212.78-17.53 211.98-15.55 211.98-12.85L211.98-12.85Q211.98-9.9 213.18-7.5 214.38-5.1 216.63-3.7 218.88-2.3 222.08-2.3L222.08-2.3Q223.78-2.3 225.18-2.8 226.58-3.3 227.66-4.13 228.73-4.95 229.43-5.85L229.43-5.85Q229.98-6.3 230.48-6.3L230.48-6.3Q231.03-6.3 231.41-5.9 231.78-5.5 231.78-5L231.78-5Q231.78-4.4 231.28-3.95L231.28-3.95Q229.78-2.15 227.38-0.83 224.98 0.5 222.13 0.5ZM263.28-26.15L263.28-26.15Q265.68-26.15 267.68-25.63 269.68-25.1 270.9-24.2 272.13-23.3 272.13-22.25L272.13-22.25Q272.13-21.75 271.75-21.28 271.38-20.8 270.83-20.8L270.83-20.8Q270.18-20.8 269.8-21.1 269.43-21.4 269.08-21.8 268.73-22.2 268.03-22.55L268.03-22.55Q267.38-22.85 266.15-23.1 264.93-23.35 263.43-23.35L263.43-23.35Q260.63-23.35 258.38-21.95 256.13-20.55 254.83-18.18 253.53-15.8 253.53-12.85L253.53-12.85Q253.53-9.85 254.75-7.45 255.98-5.05 258.2-3.68 260.43-2.3 263.33-2.3L263.33-2.3Q265.33-2.3 266.45-2.65 267.58-3 268.33-3.45L268.33-3.45Q269.33-4 269.75-4.53 270.18-5.05 270.88-5.05L270.88-5.05Q271.48-5.05 271.83-4.67 272.18-4.3 272.18-3.7L272.18-3.7Q272.18-2.9 271-1.93 269.83-0.95 267.78-0.23 265.73 0.5 263.03 0.5L263.03 0.5Q259.33 0.5 256.5-1.25 253.68-3 252.1-6.03 250.53-9.05 250.53-12.85L250.53-12.85Q250.53-16.5 252.13-19.5 253.73-22.5 256.58-24.33 259.43-26.15 263.28-26.15ZM289.28 0.5L289.28 0.5Q285.43 0.5 282.48-1.15 279.53-2.8 277.88-5.75 276.23-8.7 276.23-12.65L276.23-12.65Q276.23-16.9 277.9-19.9 279.58-22.9 282.25-24.53 284.93-26.15 287.93-26.15L287.93-26.15Q290.13-26.15 292.2-25.38 294.28-24.6 295.88-23.08 297.48-21.55 298.48-19.35 299.48-17.15 299.53-14.25L299.53-14.25Q299.53-13.65 299.08-13.23 298.63-12.8 298.03-12.8L298.03-12.8 277.98-12.8 277.38-15.5 297.08-15.5 296.43-14.9 296.43-15.9Q296.18-18.25 294.88-19.9 293.58-21.55 291.75-22.4 289.93-23.25 287.93-23.25L287.93-23.25Q286.43-23.25 284.85-22.65 283.28-22.05 282-20.78 280.73-19.5 279.93-17.53 279.13-15.55 279.13-12.85L279.13-12.85Q279.13-9.9 280.33-7.5 281.53-5.1 283.78-3.7 286.03-2.3 289.23-2.3L289.23-2.3Q290.93-2.3 292.33-2.8 293.73-3.3 294.8-4.13 295.88-4.95 296.58-5.85L296.58-5.85Q297.13-6.3 297.63-6.3L297.63-6.3Q298.18-6.3 298.55-5.9 298.93-5.5 298.93-5L298.93-5Q298.93-4.4 298.43-3.95L298.43-3.95Q296.93-2.15 294.53-0.83 292.13 0.5 289.28 0.5ZM317.77-26.15L317.77-26.15Q321.07-26.15 323.05-24.83 325.02-23.5 325.9-21.23 326.77-18.95 326.77-16.2L326.77-16.2 326.77-1.5Q326.77-0.9 326.32-0.45 325.87 0 325.27 0L325.27 0Q324.57 0 324.17-0.45 323.77-0.9 323.77-1.5L323.77-1.5 323.77-16.05Q323.77-18.05 323.12-19.7 322.47-21.35 321-22.35 319.52-23.35 317.12-23.35L317.12-23.35Q314.97-23.35 313.05-22.35 311.12-21.35 309.92-19.7 308.72-18.05 308.72-16.05L308.72-16.05 308.72-1.5Q308.72-0.9 308.27-0.45 307.82 0 307.22 0L307.22 0Q306.52 0 306.12-0.45 305.72-0.9 305.72-1.5L305.72-1.5 305.72-23.9Q305.72-24.5 306.15-24.95 306.57-25.4 307.22-25.4L307.22-25.4Q307.87-25.4 308.3-24.95 308.72-24.5 308.72-23.9L308.72-23.9 308.72-19.7 307.57-17.9Q307.67-19.5 308.6-20.98 309.52-22.45 310.97-23.63 312.42-24.8 314.2-25.48 315.97-26.15 317.77-26.15ZM332.97-25.45L332.97-25.45 344.62-25.45Q345.22-25.45 345.62-25.03 346.02-24.6 346.02-24L346.02-24Q346.02-23.45 345.62-23.05 345.22-22.65 344.62-22.65L344.62-22.65 332.97-22.65Q332.37-22.65 331.95-23.08 331.52-23.5 331.52-24.05L331.52-24.05Q331.52-24.65 331.95-25.05 332.37-25.45 332.97-25.45ZM338.12-32.5L338.12-32.5Q338.77-32.5 339.2-32.05 339.62-31.6 339.62-31L339.62-31 339.62-5.9Q339.62-4.5 340-3.8 340.37-3.1 340.97-2.88 341.57-2.65 342.17-2.65L342.17-2.65Q342.57-2.65 342.9-2.78 343.22-2.9 343.62-2.9L343.62-2.9Q344.07-2.9 344.4-2.55 344.72-2.2 344.72-1.65L344.72-1.65Q344.72-0.95 343.92-0.48 343.12 0 342.02 0L342.02 0Q341.57 0 340.67-0.08 339.77-0.15 338.82-0.63 337.87-1.1 337.25-2.3 336.62-3.5 336.62-5.75L336.62-5.75 336.62-31Q336.62-31.6 337.05-32.05 337.47-32.5 338.12-32.5ZM353.07 0L353.07 0Q352.37 0 351.97-0.45 351.57-0.9 351.57-1.5L351.57-1.5 351.57-23.9Q351.57-24.5 351.99-24.95 352.42-25.4 353.07-25.4L353.07-25.4Q353.72-25.4 354.14-24.95 354.57-24.5 354.57-23.9L354.57-23.9 354.57-16.4 353.82-16.25Q353.97-18 354.69-19.73 355.42-21.45 356.67-22.9 357.92-24.35 359.64-25.25 361.37-26.15 363.52-26.15L363.52-26.15Q364.42-26.15 365.27-25.78 366.12-25.4 366.12-24.55L366.12-24.55Q366.12-23.8 365.72-23.4 365.32-23 364.77-23L364.77-23Q364.32-23 363.79-23.25 363.27-23.5 362.42-23.5L362.42-23.5Q361.02-23.5 359.62-22.68 358.22-21.85 357.07-20.45 355.92-19.05 355.24-17.32 354.57-15.6 354.57-13.85L354.57-13.85 354.57-1.5Q354.57-0.9 354.12-0.45 353.67 0 353.07 0ZM390.97-25.55L390.97-25.55Q391.62-25.55 392.04-25.1 392.47-24.65 392.47-24L392.47-24 392.47-1.5Q392.47-0.9 392.02-0.45 391.57 0 390.97 0L390.97 0Q390.27 0 389.87-0.45 389.47-0.9 389.47-1.5L389.47-1.5 389.47-7.45 390.32-7.85Q390.32-6.45 389.54-5 388.77-3.55 387.42-2.3 386.07-1.05 384.24-0.28 382.42 0.5 380.27 0.5L380.27 0.5Q376.92 0.5 374.24-1.25 371.57-3 370.04-6.05 368.52-9.1 368.52-12.9L368.52-12.9Q368.52-16.8 370.07-19.78 371.62-22.75 374.27-24.45 376.92-26.15 380.22-26.15L380.22-26.15Q382.37-26.15 384.24-25.4 386.12-24.65 387.52-23.35 388.92-22.05 389.72-20.38 390.52-18.7 390.52-16.9L390.52-16.9 389.47-17.65 389.47-24Q389.47-24.65 389.87-25.1 390.27-25.55 390.97-25.55ZM380.57-2.3L380.57-2.3Q383.22-2.3 385.27-3.68 387.32-5.05 388.49-7.48 389.67-9.9 389.67-12.9L389.67-12.9Q389.67-15.85 388.49-18.2 387.32-20.55 385.27-21.95 383.22-23.35 380.57-23.35L380.57-23.35Q377.97-23.35 375.89-22 373.82-20.65 372.64-18.3 371.47-15.95 371.47-12.9L371.47-12.9Q371.47-9.9 372.62-7.48 373.77-5.05 375.84-3.68 377.92-2.3 380.57-2.3ZM403.61-35.5L403.61-1.5Q403.61-0.9 403.16-0.45 402.71 0 402.11 0L402.11 0Q401.46 0 401.04-0.45 400.61-0.9 400.61-1.5L400.61-1.5 400.61-35.5Q400.61-36.1 401.06-36.55 401.51-37 402.11-37L402.11-37Q402.76-37 403.19-36.55 403.61-36.1 403.61-35.5L403.61-35.5Z" opacity="1" transform="matrix(1,0,0,1,0,0)" fill="#f4f3f0" class="wordmark-text-0" data-fill-palette-color="primary" id="text-0"></path></svg></g></svg></g></svg></g></svg></g><g transform="matrix(1,0,0,1,404.24316699551565,0)"><svg viewBox="0 0 51.065829596412556 51.065829596412556" height="51.065829596412556" width="51.065829596412556"><g data-palette-color="#2f84ff"><rect width="13.957993423019431" height="51.065829596412556" fill="#2f84ff" stroke="transparent" data-fill-palette-color="accent" x="0" fill-opacity="1"></rect><rect width="13.957993423019431" height="51.065829596412556" fill="#2f84ff" stroke="transparent" data-fill-palette-color="accent" x="17.021943198804184" fill-opacity="0.75"></rect><rect width="13.957993423019431" height="51.065829596412556" fill="#2f84ff" stroke="transparent" data-fill-palette-color="accent" x="34.04388639760837" fill-opacity="0.5"></rect></g></svg></g></svg></g><defs></defs></svg><rect width="395.52" height="44.360109449089585" fill="none" stroke="none" visibility="hidden"></rect></g></svg></g></svg>